<?xml version="1.0" encoding="UTF-8"?>
<svg xmlns="http://www.w3.org/2000/svg" version="1.1" viewBox="0 0 512 512">
  <defs>
    <style>
      .cls-1 {
        fill: #00b5ef;
      }

      .cls-2 {
        fill: #292075;
      }
    </style>
  </defs>
  <!-- Generator: Adobe Illustrator 28.6.0, SVG Export Plug-In . SVG Version: 1.2.0 Build 709)  -->
  <g>
    <g id="Layer_1">
      <g id="layer1">
        <g id="g9996">
          <path id="path2868" class="cls-2" d="M302.57,257.31c-9.35-7.75-21.45-12.76-32.13-17.17-14.72-6.09-27.44-11.34-27.44-21.08,0-4.25,1.99-8.16,5.61-10.98,3.82-2.98,9.15-4.61,15-4.61,18.41,0,33.09,13.02,33.22,13.13l3.59,3.27,16.31-30.59-1.87-1.97c-.71-.75-17.89-18.49-51.03-18.49-15.9,0-30.52,5.08-41.19,14.31-10.82,9.36-16.8,22.29-16.8,36.39s5.34,24.87,16.29,33.98c9.21,7.65,20.69,12.6,31.79,17.39,15.14,6.52,28.24,12.17,28.24,22.21,0,7.65-5.18,15.82-19.7,15.82-20.82,0-37.53-15.85-37.69-16.02l-3.13-3.04-20.28,28.1,2.02,2.26c.23.23,5.47,6.02,15.31,11.78,9.03,5.27,23.88,11.56,43.3,11.56,17,0,31.48-5.21,41.89-15.07,9.79-9.28,15.18-22.09,15.18-36.09s-5.4-25.88-16.52-35.1"/>
          <path id="path2870" class="cls-2" d="M474,341.04h38v-169.7h-38v169.7Z"/>
          <path id="path2874" class="cls-2" d="M399.72,309.26h-28.92v-106.15h25.5c11.43,0,17.99,6.39,17.99,17.54s-5.9,16.96-17.54,16.96h-8.78v31.23h11.75c6.43,0,11.78,2,15.48,5.81,3.89,3.99,5.47,7.95,5.47,13.64,0,12.93-8.03,20.96-20.95,20.96M450.18,264.78c-3.76-5.91-8.91-10.61-15.05-13.75,9.9-7.93,15.5-20.12,15.5-34.03s-5.36-25.8-15.5-33.95c-9.55-7.67-22.82-11.72-38.38-11.72h-61.83v169.7h62.52c16.59,0,30.93-4.19,41.48-12.13,11.98-9,18.3-22.41,18.3-38.77,0-9.32-2.43-18.09-7.05-25.35"/>
          <path id="path2878" class="cls-1" d="M87.73,168.3C39.28,168.3,0,207.67,0,256.23c0,45.53,34.52,82.97,78.75,87.48v-63.88c-9.51-3.63-16.28-12.83-16.28-23.6,0-13.93,11.33-25.26,25.26-25.26s25.26,11.33,25.26,25.26c0,10.77-6.79,19.97-16.29,23.6v63.88c44.24-4.5,78.76-41.95,78.76-87.48,0-48.56-39.28-87.93-87.73-87.93"/>
        </g>
      </g>
    </g>
  </g>
</svg>