<?xml version="1.0" encoding="utf-8"?>
<!-- Generator: Adobe Illustrator 27.0.0, SVG Export Plug-In . SVG Version: 6.00 Build 0)  -->
<svg version="1.1" id="Layer_1" xmlns="http://www.w3.org/2000/svg" xmlns:xlink="http://www.w3.org/1999/xlink" x="0px" y="0px"
	 viewBox="0 0 512 512" style="enable-background:new 0 0 512 512;" xml:space="preserve">
<style type="text/css">
	.st0{fill:#AA0000;}
</style>
<g id="XMLID_1_">
	<path id="XMLID_3_" class="st0" d="M38.51,168.71c2.67-2.95,6.88-3.23,10.66-3.37c2.81,0.14,5.75,0.28,8.56,1.12
		c0.84,0.42,2.24,0.7,2.24,1.96c-0.98,1.96-3.23,2.39-4.77,3.37c-6.17,3.65-12.35,7.16-17.82,11.79c0.14-2.1-0.28-4.21-0.14-6.31
		C37.24,174.32,36.4,170.95,38.51,168.71z"/>
	<path id="XMLID_4_" class="st0" d="M65.31,171.65c5.19-2.95,11.51-1.12,16.14,1.96c1.26,0.84,2.39,2.53,1.26,3.79
		c-1.54,1.82-3.79,2.81-6.03,3.37c-14.17,4.07-27.64,10.94-39.29,19.92c0-2.24,0-4.49,0-6.88C45.38,185.12,55.2,178.11,65.31,171.65
		z"/>
	<path id="XMLID_5_" class="st0" d="M88.6,179.51c2.95-1.12,6.17,0.14,8.42,1.96c1.68,1.26,3.51,2.39,5.05,3.79
		c1.12,0.98,1.96,2.81,0.98,4.21c-1.54,2.24-4.49,2.95-6.88,3.65c-20.77,6.88-41.25,15.43-59.07,28.48
		c-0.14-2.24-0.14-4.49-0.42-6.73c9.54-10.94,21.75-19.22,34.38-26.38C76.95,185.4,82.7,182.46,88.6,179.51z"/>
	<path id="XMLID_6_" class="st0" d="M106.14,193.82c2.53-0.98,5.89-1.12,8,0.84c1.82,1.82,3.65,3.51,5.47,5.19
		c1.12,1.26,2.39,3.09,1.68,4.91c-0.98,2.24-3.37,3.23-5.33,3.93c-17.54,5.33-34.94,11.08-51.35,19.08
		c-9.54,4.63-18.8,10.1-27.22,16.7c0-1.96-0.14-4.07-0.14-6.03c8.84-10.94,20.48-19.36,32.41-26.52
		C81.3,205.05,93.65,199.29,106.14,193.82z"/>
	<path id="XMLID_7_" class="st0" d="M119.6,211.92c1.96-0.84,4.07-1.96,6.31-1.4c2.67,0.56,4.63,2.95,5.89,5.33
		c1.54,2.95,3.93,5.61,3.79,8.98c0,2.53-1.96,4.63-4.07,5.75c-4.35,2.39-9.4,3.09-14.31,3.93c-28.62,4.91-56.12,16.14-79.55,33.25
		c0-2.39-0.28-4.63-0.28-7.02c9.26-9.96,20.34-18.1,31.99-25.11C85.09,225.95,102.21,218.38,119.6,211.92z"/>
	<path id="XMLID_8_" class="st0" d="M98,244.33c0.28,2.24,0.14,4.63,0.28,6.88c-9.96,10.66-22.03,19.22-34.66,26.66
		c-15.01,8.84-31.01,15.85-47.28,21.89c-1.82,0.7-3.51,1.82-5.47,1.68c-3.23,0.14-5.61-2.53-6.88-5.19
		c-1.54-3.09-4.21-5.89-3.93-9.54c0.14-2.53,2.24-4.49,4.35-5.61c4.21-2.24,9.12-2.95,13.75-3.65
		C46.65,272.67,74.43,261.59,98,244.33z"/>
	<path id="XMLID_9_" class="st0" d="M121.01,249.8c3.79-2.81,8.84-3.51,13.61-3.09c2.1,0.14,4.21,0.56,6.17,1.12
		c2.81,0.84,5.61,1.54,8,3.09c0,4.07,0,8.14,0,12.07c-2.39-1.82-5.05-3.23-7.72-4.35c-2.67-0.98-5.47-1.82-8.28-0.84
		c-1.4,0.42-2.67,1.82-2.24,3.37c0.7,1.68,2.24,2.53,3.65,3.37c4.07,1.96,8.14,3.93,11.65,6.73c2.53,2.1,3.79,5.47,3.65,8.7
		c0.14,3.65-1.4,7.3-4.21,9.54c-3.51,2.81-8.14,4.21-12.49,4.21c-6.03,0.28-12.07-1.12-17.54-3.79c0-4.07,0-8.14,0-12.21
		c3.23,2.1,6.59,3.65,10.24,4.77c2.53,0.7,5.33,0.42,7.58-0.84c0.84-0.42,0.98-1.4,1.26-2.24c-0.7-1.96-2.81-2.81-4.49-3.65
		c-3.79-1.54-7.44-3.37-10.38-6.17C114.13,264.4,114.83,254.29,121.01,249.8z"/>
	<path id="XMLID_12_" class="st0" d="M172.92,249.1c5.47-0.7,11.36,0,16.28,2.67c5.75,3.09,10.24,8.7,11.22,15.15
		c0.56,4.63,0.42,9.68-1.82,13.89c-3.23,6.45-9.82,11.08-16.98,12.21c-5.89,0.98-12.21,0.28-17.54-2.67
		c-4.91-2.81-8.98-7.44-10.52-12.91c-1.54-5.89-0.98-12.49,2.24-17.68C159.59,253.87,166.05,249.94,172.92,249.1 M173.9,262.01
		c-6.45,2.24-7.86,11.79-3.09,16.28c3.23,3.23,8.98,3.23,12.07,0c1.96-1.96,2.95-4.77,2.67-7.58c0.14-3.37-1.82-6.73-4.91-8.28
		C178.67,261.45,176.15,261.31,173.9,262.01z"/>
	<path id="XMLID_13_" class="st0" d="M256.96,249.52c15.15,0,30.31,0,45.46,0c0,3.79,0,7.58,0,11.36c-5.05,0-10.1,0-15.15,0
		c0,10.66,0,21.47,0,32.13c-5.05,0-10.24,0-15.29,0c0-10.66,0-21.47,0-32.13c-5.05,0-10.1,0-15.01,0
		C256.96,256.96,256.96,253.31,256.96,249.52z"/>
	<path id="XMLID_14_" class="st0" d="M308.04,249.52c4.91,0,9.82,0,14.73,0c0,5.33,0,10.66,0,15.99c5.89,0,11.79,0,17.68,0
		c0-5.33,0-10.66,0-15.99c4.91,0,9.82,0,14.73,0c0,14.59,0,29.18,0,43.78c-4.91,0-9.82,0-14.73,0c0-5.33,0-10.8,0-16.14
		c-5.89,0-11.79,0-17.68,0c0,5.33,0,10.8,0,16.14c-4.91,0-9.82,0-14.73,0C308.04,278.71,308.04,264.12,308.04,249.52z"/>
	<path id="XMLID_15_" class="st0" d="M205.47,249.94c5.05,0,9.96,0,15.01,0c0,7.3,0,14.45,0,21.75c0,2.1-0.14,4.49,0.84,6.45
		c0.84,1.96,2.67,3.37,4.63,3.65c2.39,0.42,5.19,0.28,7.3-1.12c2.1-1.54,2.81-4.35,2.81-6.88c0-8,0-15.85,0-23.85
		c5.05,0,9.96,0,15.01,0c0,6.45,0,12.77,0,19.08c0,4.63,0.14,9.4-1.68,13.61c-1.68,4.35-5.47,7.72-9.96,9.26
		c-5.75,1.96-12.07,2.1-17.96,1.12c-4.63-0.84-9.26-2.81-12.21-6.59c-3.09-3.79-3.93-8.98-3.79-13.75
		C205.47,265.24,205.47,257.52,205.47,249.94z"/>
	<path id="XMLID_16_" class="st0" d="M71.06,284.04c9.54-4.63,18.8-10.1,27.08-16.7c0,2.1,0.28,4.07,0.14,6.17
		c-6.88,8.56-15.71,15.57-24.83,21.61c-13.47,8.98-28.2,15.99-42.93,22.45c-2.67,1.4-6.03,1.82-8.56,0.28
		c-1.54-1.26-2.95-2.81-4.35-4.21c-1.26-1.12-2.39-2.24-3.09-3.65s-0.42-3.23,0.84-4.35c1.96-1.96,4.77-2.67,7.3-3.51
		C39.07,297.23,55.48,291.62,71.06,284.04z"/>
	<path id="XMLID_17_" class="st0" d="M40.47,318.27c20.34-6.73,40.41-15.15,57.67-28.06c0,2.24,0.56,4.49,0.42,6.73
		c-5.89,6.88-13.05,12.77-20.63,17.82c-9.26,6.31-19.08,11.65-29.04,16.56c-1.4,0.84-2.81,1.54-4.49,1.54
		c-2.1-0.14-4.21-0.98-5.89-2.39c-1.96-1.54-4.21-2.67-5.75-4.49c-1.12-1.12-1.26-3.23,0-4.35
		C34.86,319.68,37.95,319.26,40.47,318.27z"/>
	<path id="XMLID_18_" class="st0" d="M115.26,298.35c4.77,0,9.54,0,14.31,0c0,14.03,0,28.06,0,42.09c-4.77,0-9.54,0-14.31,0
		C115.26,326.41,115.26,312.38,115.26,298.35z"/>
	<path id="XMLID_19_" class="st0" d="M137.14,298.35c4.49,0,8.84,0,13.33,0c6.31,7.02,12.49,14.03,18.8,21.05
		c0.14-7.02,0-14.03,0-21.05c4.77,0,9.68,0,14.45,0c0,14.03,0,28.06,0,42.09c-4.49,0-8.84,0.14-13.33-0.14
		c-6.31-6.88-12.35-13.89-18.8-20.77c0,7.02,0,13.89,0,20.91c-4.77,0-9.68,0-14.45,0C137.14,326.41,137.14,312.38,137.14,298.35z"/>
	<path id="XMLID_22_" class="st0" d="M190.46,298.35c8,0.14,15.99-0.28,23.99,0.28c5.75,0.42,11.22,2.95,15.15,7.16
		c3.51,3.65,5.33,8.84,5.05,13.75c0.14,5.05-1.68,10.1-5.33,13.61c-3.79,4.21-9.26,6.59-14.87,7.02c-8,0.56-15.99,0.14-23.99,0.28
		C190.46,326.41,190.46,312.38,190.46,298.35 M204.91,309.15c0,6.88,0,13.75,0,20.48c1.96,0,3.93,0,5.89,0
		c2.95,0,5.89-1.68,7.58-4.21c1.68-2.39,1.96-5.61,1.54-8.42c-0.56-3.23-2.95-6.31-6.03-7.44
		C210.94,308.73,207.86,309.29,204.91,309.15z"/>
	<path id="XMLID_23_" class="st0" d="M239.15,298.35c4.77,0,9.4,0,14.17,0c0,14.03,0,28.06,0,42.09c-4.77,0-9.4,0-14.17,0
		C239.15,326.41,239.15,312.38,239.15,298.35z"/>
	<path id="XMLID_26_" class="st0" d="M272.82,298.35c5.61,0,11.22,0,16.84,0c5.19,14.03,10.52,28.06,15.85,42.09
		c-4.35,0-8.7,0-13.05,0l-0.28-0.14c-0.84-2.39-1.68-4.63-2.53-7.02c-5.75,0-11.51,0-17.4,0c-0.84,2.39-1.68,4.77-2.67,7.02
		c-0.56,0.28-1.26,0.14-1.96,0.14c-3.79,0-7.72,0-11.51,0C261.74,326.55,267.35,312.52,272.82,298.35 M281.1,309.71
		c-1.82,4.49-3.37,9.12-5.33,13.61c3.51,0.28,6.88,0,10.38,0.14C284.47,318.83,282.78,314.34,281.1,309.71z"/>
	<path id="XMLID_27_" class="st0" d="M308.32,298.49c4.49,0,8.84,0,13.33,0c6.31,7.02,12.63,14.03,18.94,21.05
		c0-7.02,0-14.03,0-21.19c4.77,0,9.68,0,14.45,0c0,14.03,0,28.06,0,42.09c-4.35,0-8.84,0-13.19,0
		c-6.31-6.88-12.63-14.03-18.94-21.05c-0.14,7.02,0,14.03,0,21.05c-4.77,0-9.68,0-14.45,0
		C308.32,326.41,308.32,312.38,308.32,298.49z"/>
	<path id="XMLID_31_" class="st0" d="M376.09,298.35c4.63,0,9.4,0,14.03,0c4.07,0.14,8.56,0.28,12.21,2.67
		c4.63,2.81,5.47,9.96,1.96,14.03c-0.84,0.98-1.96,1.68-3.09,2.24c2.95,1.12,6.03,2.95,7.3,6.03c1.4,3.65,1.26,8.14-0.84,11.51
		c-2.1,3.37-6.17,4.77-9.82,5.19c-7.3,0.56-14.45,0.14-21.75,0.28C376.09,326.41,376.09,312.38,376.09,298.35 M385.49,305.93
		c0,3.09,0,6.03,0,9.12c2.53,0,5.05,0,7.72,0c1.68,0,3.51-0.7,4.21-2.24c0.98-2.39,0.14-5.89-2.53-6.45
		C391.8,305.51,388.57,306.07,385.49,305.93 M385.49,322.62c0,3.37,0,6.73,0,10.1c3.09,0,6.17,0,9.26,0
		c1.68-0.14,3.65-0.56,4.63-1.96c0.98-1.68,0.98-3.79,0.14-5.47c-0.98-1.82-3.23-2.39-5.19-2.53
		C391.52,322.62,388.57,322.62,385.49,322.62z"/>
	<path id="XMLID_32_" class="st0" d="M482.02,298.35c2.95,0,5.89,0,8.84,0c0,13.75,0,27.5,0,41.25c-2.95,0-5.89,0-8.84,0
		C482.02,325.99,482.02,312.24,482.02,298.35z"/>
	<path id="XMLID_35_" class="st0" d="M415.65,314.2c4.77-2.53,10.38-3.65,15.85-2.95c2.53,0.42,5.33,1.4,6.59,3.65
		c1.82,3.09,1.26,6.88,1.4,10.24c0.14,2.81-0.14,5.47,0.14,8.28c0.84,1.26,2.53,0.28,3.65,0c0,1.54,0.14,2.95,0.14,4.49
		c-2.81,1.26-5.75,2.81-8.84,2.24c-1.68-0.28-2.81-1.68-3.23-3.23c-2.53,1.96-5.75,3.09-8.98,3.09c-2.24,0-4.63-0.56-6.17-2.24
		c-2.24-2.39-2.53-6.45-0.42-9.12c1.68-2.1,4.35-3.37,6.73-4.35c2.81-1.12,5.61-1.82,8.56-2.53c0.14-1.4-0.28-2.95-1.4-3.79
		c-1.68-1.26-3.93-1.4-5.89-1.12c-2.95,0.56-5.61,1.96-7.86,3.93C415.65,318.69,415.65,316.45,415.65,314.2 M423.93,329.5
		c-1.26,1.54-1.26,4.49,0.98,5.19c2.1,0.56,4.07-0.42,5.89-1.4c0-2.39,0-4.91,0-7.3C428.28,326.97,425.61,327.53,423.93,329.5z"/>
	<path id="XMLID_36_" class="st0" d="M58.43,331.18c14.31-4.07,27.92-10.94,39.71-20.06c0,2.24,0,4.49,0,6.73
		c-6.88,7.72-15.15,13.89-23.57,19.64c-2.24,1.4-4.35,3.37-7.16,3.93c-3.23,0.84-6.73,0.14-9.82-1.26
		c-1.82-0.84-3.79-1.68-4.91-3.23c-0.7-0.98-0.14-2.39,0.7-3.09C54.92,332.58,56.61,331.74,58.43,331.18z"/>
	<path id="XMLID_37_" class="st0" d="M455.92,315.47c2.39-2.39,5.61-3.93,9.12-4.07c2.81-0.14,5.75,0.56,7.58,2.81
		c2.1,2.39,2.53,5.75,2.39,8.84c0,5.47,0,11.08,0,16.56c-2.95,0-5.89,0-8.7,0c0-5.75,0-11.65,0-17.4c0-1.82-0.7-4.35-2.67-4.91
		c-3.23-0.84-6.17,1.82-7.58,4.35c-0.14,5.89,0,11.93,0,17.82c-2.81,0-5.61,0-8.42,0c0-9.26,0-18.38,0-27.64c2.81,0,5.61,0,8.42,0
		C455.92,313.22,455.92,314.34,455.92,315.47z"/>
	<path id="XMLID_38_" class="st0" d="M501.24,311.96c3.51,0,7.16,0,10.66,0c-3.51,4.35-7.16,8.7-10.66,13.19
		c0.7,1.4,1.96,2.67,2.81,3.93c2.67,3.51,5.33,7.16,8,10.66c-3.37,0-6.73,0-10.24,0c-3.65-4.77-7.3-9.68-10.94-14.45
		C494.5,320.94,497.87,316.45,501.24,311.96z"/>
	<path id="XMLID_39_" class="st0" d="M88.32,335.53c3.37-2.1,6.73-4.35,9.82-7.02c0,3.79,0.14,7.72,0.14,11.51
		c-0.14,2.81-2.39,4.91-4.91,5.75c-3.51,1.26-7.44,1.12-11.22,0.7c-2.1-0.28-4.35-0.28-6.03-1.54c-0.56-0.28-0.56-0.98-0.56-1.54
		c0.56-0.56,1.26-1.12,1.96-1.54C81.3,339.88,84.81,337.64,88.32,335.53z"/>
</g>
</svg>
